<mxfile host="app.diagrams.net" modified="2023-11-25T08:18:08.828Z" agent="Mozilla/5.0 (Windows NT 10.0; Win64; x64) AppleWebKit/537.36 (KHTML, like Gecko) Chrome/92.0.4515.159 Safari/537.36" etag="yVNnBo4WHde_Yo24nB9k" version="22.1.4" type="github">
  <diagram name="第 1 页" id="O-GNi57xOglbci2jKU-Z">
    <mxGraphModel dx="1050" dy="558" grid="1" gridSize="10" guides="1" tooltips="1" connect="1" arrows="1" fold="1" page="1" pageScale="1" pageWidth="827" pageHeight="1169" math="0" shadow="0">
      <root>
        <mxCell id="0" />
        <mxCell id="1" parent="0" />
        <mxCell id="Hl0Xz_Ft6l_kvinc7ED2-1" value="" style="rounded=0;whiteSpace=wrap;html=1;fillColor=#dae8fc;strokeColor=#6c8ebf;" vertex="1" parent="1">
          <mxGeometry x="30" y="60" width="120" height="400" as="geometry" />
        </mxCell>
        <mxCell id="Hl0Xz_Ft6l_kvinc7ED2-2" value="" style="rounded=0;whiteSpace=wrap;html=1;fillColor=#dae8fc;strokeColor=#6c8ebf;" vertex="1" parent="1">
          <mxGeometry x="280" y="60" width="120" height="400" as="geometry" />
        </mxCell>
        <mxCell id="Hl0Xz_Ft6l_kvinc7ED2-3" value="" style="rounded=0;whiteSpace=wrap;html=1;fillColor=#dae8fc;strokeColor=#6c8ebf;" vertex="1" parent="1">
          <mxGeometry x="550" y="60" width="120" height="400" as="geometry" />
        </mxCell>
        <mxCell id="Hl0Xz_Ft6l_kvinc7ED2-4" value="硬件层" style="text;html=1;strokeColor=#82b366;fillColor=#d5e8d4;align=center;verticalAlign=middle;whiteSpace=wrap;rounded=0;" vertex="1" parent="1">
          <mxGeometry x="60" y="20" width="60" height="30" as="geometry" />
        </mxCell>
        <mxCell id="Hl0Xz_Ft6l_kvinc7ED2-5" value="虚拟服务资源层" style="text;html=1;strokeColor=#82b366;fillColor=#d5e8d4;align=center;verticalAlign=middle;whiteSpace=wrap;rounded=0;" vertex="1" parent="1">
          <mxGeometry x="310" y="20" width="60" height="30" as="geometry" />
        </mxCell>
        <mxCell id="Hl0Xz_Ft6l_kvinc7ED2-6" value="云层" style="text;html=1;strokeColor=#82b366;fillColor=#d5e8d4;align=center;verticalAlign=middle;whiteSpace=wrap;rounded=0;" vertex="1" parent="1">
          <mxGeometry x="580" y="20" width="60" height="30" as="geometry" />
        </mxCell>
        <mxCell id="Hl0Xz_Ft6l_kvinc7ED2-7" value="私有云1" style="rounded=0;whiteSpace=wrap;html=1;fillColor=#ffe6cc;strokeColor=#d79b00;" vertex="1" parent="1">
          <mxGeometry x="60" y="80" width="50" height="20" as="geometry" />
        </mxCell>
        <mxCell id="Hl0Xz_Ft6l_kvinc7ED2-8" value="私有云2" style="rounded=0;whiteSpace=wrap;html=1;fillColor=#ffe6cc;strokeColor=#d79b00;" vertex="1" parent="1">
          <mxGeometry x="60" y="120" width="50" height="20" as="geometry" />
        </mxCell>
        <mxCell id="Hl0Xz_Ft6l_kvinc7ED2-9" value="公有云2" style="rounded=0;whiteSpace=wrap;html=1;fillColor=#ffe6cc;strokeColor=#d79b00;" vertex="1" parent="1">
          <mxGeometry x="60" y="220" width="50" height="20" as="geometry" />
        </mxCell>
        <mxCell id="Hl0Xz_Ft6l_kvinc7ED2-10" value="公有云2" style="rounded=0;whiteSpace=wrap;html=1;fillColor=#ffe6cc;strokeColor=#d79b00;" vertex="1" parent="1">
          <mxGeometry x="60" y="260" width="50" height="20" as="geometry" />
        </mxCell>
        <mxCell id="Hl0Xz_Ft6l_kvinc7ED2-11" value="存储离散池" style="rounded=0;whiteSpace=wrap;html=1;fillColor=#ffe6cc;strokeColor=#d79b00;" vertex="1" parent="1">
          <mxGeometry x="295" y="80" width="90" height="50" as="geometry" />
        </mxCell>
        <mxCell id="Hl0Xz_Ft6l_kvinc7ED2-12" value="CPU离散池" style="rounded=0;whiteSpace=wrap;html=1;fillColor=#ffe6cc;strokeColor=#d79b00;" vertex="1" parent="1">
          <mxGeometry x="295" y="170" width="90" height="50" as="geometry" />
        </mxCell>
        <mxCell id="Hl0Xz_Ft6l_kvinc7ED2-13" value="RAM离散池" style="rounded=0;whiteSpace=wrap;html=1;fillColor=#ffe6cc;strokeColor=#d79b00;" vertex="1" parent="1">
          <mxGeometry x="295" y="260" width="90" height="50" as="geometry" />
        </mxCell>
        <mxCell id="Hl0Xz_Ft6l_kvinc7ED2-14" value="·····" style="rounded=0;whiteSpace=wrap;html=1;fillColor=#ffe6cc;strokeColor=#d79b00;" vertex="1" parent="1">
          <mxGeometry x="60" y="170" width="50" height="20" as="geometry" />
        </mxCell>
        <mxCell id="Hl0Xz_Ft6l_kvinc7ED2-15" value="·····" style="rounded=0;whiteSpace=wrap;html=1;fillColor=#ffe6cc;strokeColor=#d79b00;" vertex="1" parent="1">
          <mxGeometry x="60" y="310" width="50" height="20" as="geometry" />
        </mxCell>
        <mxCell id="Hl0Xz_Ft6l_kvinc7ED2-16" value="·······" style="rounded=0;whiteSpace=wrap;html=1;fillColor=#ffe6cc;strokeColor=#d79b00;" vertex="1" parent="1">
          <mxGeometry x="295" y="360" width="90" height="50" as="geometry" />
        </mxCell>
        <mxCell id="Hl0Xz_Ft6l_kvinc7ED2-17" value="项目1" style="rounded=0;whiteSpace=wrap;html=1;fillColor=#ffe6cc;strokeColor=#d79b00;" vertex="1" parent="1">
          <mxGeometry x="565" y="80" width="90" height="50" as="geometry" />
        </mxCell>
        <mxCell id="Hl0Xz_Ft6l_kvinc7ED2-18" value="项目2" style="rounded=0;whiteSpace=wrap;html=1;fillColor=#ffe6cc;strokeColor=#d79b00;" vertex="1" parent="1">
          <mxGeometry x="565" y="170" width="90" height="50" as="geometry" />
        </mxCell>
        <mxCell id="Hl0Xz_Ft6l_kvinc7ED2-19" value="项目3" style="rounded=0;whiteSpace=wrap;html=1;fillColor=#ffe6cc;strokeColor=#d79b00;" vertex="1" parent="1">
          <mxGeometry x="565" y="260" width="90" height="50" as="geometry" />
        </mxCell>
        <mxCell id="Hl0Xz_Ft6l_kvinc7ED2-20" value="·······" style="rounded=0;whiteSpace=wrap;html=1;fillColor=#ffe6cc;strokeColor=#d79b00;" vertex="1" parent="1">
          <mxGeometry x="565" y="360" width="90" height="50" as="geometry" />
        </mxCell>
        <mxCell id="Hl0Xz_Ft6l_kvinc7ED2-21" value="虚拟化" style="shape=singleArrow;whiteSpace=wrap;html=1;arrowWidth=0.4;arrowSize=0.4;fillColor=#dae8fc;strokeColor=#6c8ebf;rounded=0;" vertex="1" parent="1">
          <mxGeometry x="160" y="230" width="110" height="60" as="geometry" />
        </mxCell>
        <mxCell id="Hl0Xz_Ft6l_kvinc7ED2-22" value="按需调用、动态分配" style="shape=singleArrow;whiteSpace=wrap;html=1;arrowWidth=0.4;arrowSize=0.4;fillColor=#dae8fc;strokeColor=#6c8ebf;rounded=0;" vertex="1" parent="1">
          <mxGeometry x="414" y="235" width="130" height="50" as="geometry" />
        </mxCell>
      </root>
    </mxGraphModel>
  </diagram>
</mxfile>
